<?xml version="1.0" standalone="no"?>
<!DOCTYPE svg PUBLIC "-//W3C//DTD SVG 20010904//EN"
 "http://www.w3.org/TR/2001/REC-SVG-20010904/DTD/svg10.dtd">
<svg version="1.0" xmlns="http://www.w3.org/2000/svg"
 width="700.000000pt" height="700.000000pt" viewBox="0 0 700.000000 700.000000"
 preserveAspectRatio="xMidYMid meet">
<metadata>
Created by potrace 1.14, written by Peter Selinger 2001-2017
</metadata>
<g transform="translate(0.000000,700.000000) scale(0.100000,-0.100000)"
fill="#000000" stroke="none">
<path d="M3257 6734 c-1 -1 -78 -5 -172 -8 -93 -4 -192 -9 -220 -11 -27 -2
-86 -7 -130 -10 -44 -3 -116 -10 -160 -16 -44 -5 -102 -11 -130 -14 -52 -6
-153 -20 -290 -41 -24 -4 -131 -24 -311 -58 -11 -2 -38 -9 -60 -14 -21 -6 -70
-18 -109 -28 -162 -39 -415 -123 -545 -181 -318 -142 -513 -308 -570 -487 -17
-52 -20 -152 -6 -201 8 -29 11 -537 10 -1865 0 -1574 -4 -1909 -18 -1982 -2
-7 -6 -31 -10 -53 -21 -114 -91 -291 -179 -450 -18 -33 -61 -113 -96 -178 -35
-64 -67 -117 -71 -117 -4 0 -15 -19 -25 -42 -10 -24 -33 -74 -52 -113 -29 -60
-33 -74 -24 -98 19 -50 94 -56 120 -10 27 47 27 47 57 26 80 -56 249 -121 449
-173 120 -31 379 -85 460 -95 28 -4 52 -9 55 -10 3 -2 33 -6 65 -10 33 -3 67
-8 75 -10 21 -6 292 -39 410 -51 19 -1 64 -6 100 -9 36 -3 83 -8 105 -10 22
-2 78 -7 125 -10 47 -3 105 -8 130 -10 531 -46 1609 -50 2266 -10 222 13 461
32 514 40 14 2 60 7 103 10 43 4 86 8 95 10 10 1 46 6 82 10 36 3 72 8 80 10
8 2 42 7 75 10 309 31 856 154 1023 230 17 8 49 23 70 32 46 21 122 71 143 95
16 18 17 17 33 -7 9 -13 16 -28 16 -32 0 -4 10 -20 23 -35 40 -50 107 -40 121
18 7 25 -12 66 -127 276 -13 24 -45 84 -72 133 -26 50 -51 95 -55 100 -5 6
-35 64 -68 130 -84 170 -129 317 -148 490 -10 99 -7 3725 4 3772 71 306 -253
593 -898 794 -87 27 -339 94 -393 104 -12 3 -44 9 -72 15 -77 16 -93 19 -190
36 -150 25 -131 22 -260 39 -27 4 -60 8 -73 10 -13 2 -53 7 -90 10 -37 3 -80
8 -97 10 -16 2 -66 7 -110 10 -44 3 -108 8 -142 10 -149 12 -297 17 -556 19
-152 1 -278 1 -280 0z m-2618 -5161 c-19 -72 -53 -158 -86 -215 -48 -81 -60
-82 -19 -1 38 74 96 220 96 240 0 7 4 13 9 13 6 0 6 -15 0 -37z m5775 -169 c3
-8 2 -12 -4 -9 -6 3 -10 10 -10 16 0 14 7 11 14 -7z m46 -86 c17 -32 29 -58
26 -58 -7 0 -66 102 -66 114 0 14 5 6 40 -56z"/>
</g>
</svg>
